<?xml version="1.0" encoding="utf-8"?>
<!-- Generator: Adobe Illustrator 16.0.0, SVG Export Plug-In . SVG Version: 6.00 Build 0)  -->
<!DOCTYPE svg PUBLIC "-//W3C//DTD SVG 1.1//EN" "http://www.w3.org/Graphics/SVG/1.1/DTD/svg11.dtd">
<svg version="1.1" id="Layer_1" xmlns="http://www.w3.org/2000/svg" xmlns:xlink="http://www.w3.org/1999/xlink" x="0px" y="0px"
	 width="92.29px" height="92.277px" viewBox="0 0 92.29 92.277" enable-background="new 0 0 92.29 92.277" xml:space="preserve">
<g>
	<defs>
		<polyline id="SVGID_1_" points="601.743,439.758 -10.257,439.758 -10.257,-352.242 601.743,-352.242 		"/>
	</defs>
	<clipPath id="SVGID_2_">
		<use xlink:href="#SVGID_1_"  overflow="visible"/>
	</clipPath>
	<path clip-path="url(#SVGID_2_)" fill="#ffffff" d="M46.134,92.277l39.949,0.005c3.426-0.005,6.209-2.785,6.209-6.209V46.128
		c0-25.495-20.661-46.16-46.16-46.16C20.64-0.027-0.021,20.636-0.021,46.128C-0.021,71.61,20.64,92.282,46.134,92.277
		 M46.134,78.754C28.113,78.761,13.503,64.14,13.503,46.13C13.497,28.105,28.11,13.49,46.132,13.484
		c18.024,0.005,32.636,14.616,32.636,32.644C78.768,64.14,64.16,78.754,46.134,78.754"/>
	<path clip-path="url(#SVGID_2_)" fill="#ffffff" d="M34.935,69.193"/>
	<path clip-path="url(#SVGID_2_)" fill="#ffffff" d="M62.615,53.056"/>
</g>
</svg>
